<svg width="545" height="207" viewBox="0 0 545 207" fill="none" xmlns="http://www.w3.org/2000/svg">
<path d="M41.6899 145.07L254.316 188.112L242.695 206.295L524.003 145.722L378.649 89.7559L254.107 87.313L65.805 103.971L41.6899 145.07Z" fill="#070E30"/>
<path d="M47.5414 59.4751L16.3186 87.0219L31.93 117.151L58.1971 125.957L86.4768 95.479L119.165 113.836L138.639 128.528L165.813 113.475L169.489 74.9004L150.749 61.3131L112.186 73.8069L100.064 85.1955L86.1045 82.5083L65.1652 61.3131L47.5414 59.4751Z" fill="#070E30"/>
<path d="M143.071 146.769C138.581 146.769 134.044 145.99 129.484 144.419C123.714 142.442 118.502 139.045 113.558 134.043C108.393 128.831 103.112 123.55 97.9933 118.455C97.3884 117.85 96.7835 117.245 96.167 116.64C94.8059 118.001 93.4565 119.35 92.1303 120.676C87.2561 125.562 82.2075 130.623 77.1355 135.532C64.7813 147.467 46.1105 150.154 30.6852 142.244C21.5883 137.579 15.0855 130.122 11.3746 120.072C8.89679 113.359 6.89592 107.368 5.25568 101.75C3.66197 96.2706 2.49868 90.7333 1.47498 85.5683C0.974764 83.0556 0.76537 80.6243 0.555977 78.2628C0.474547 77.3671 0.404753 76.5295 0.323323 75.6919C0.300057 75.436 0.265149 75.1917 0.241884 74.9358C0.113921 73.819 -0.0605664 72.4231 0.0208641 70.9108C0.113927 69.2473 0.253522 67.6071 0.393117 66.025C0.521079 64.4778 0.649042 63.0237 0.730473 61.5812C0.986397 56.8117 2.67317 52.8216 4.12728 49.8669C8.29187 41.3748 15.4694 35.9772 25.4504 33.8251C33.7331 32.0452 41.8412 32.8944 47.9718 33.8251C50.1006 34.1508 52.1829 34.5579 54.207 34.9418C55.0911 35.1163 55.9868 35.2908 56.8826 35.4537C58.802 35.8143 60.4539 37.0358 61.338 38.7807C61.9545 40.0021 62.1639 41.3632 61.9429 42.6894C69.8766 45.7139 75.8791 51.0302 80.2764 55.3925C85.6392 60.7087 91.0368 66.1297 96.3066 71.4343C97.1092 70.5851 97.9235 69.7359 98.7727 68.8983C99.7383 67.9328 100.704 66.9556 101.669 65.9785C105.974 61.651 110.429 57.1723 114.931 52.8449C120.049 47.9242 125.226 44.5739 130.763 42.6196C130.74 42.4567 130.728 42.2822 130.717 42.1193C130.554 39.1064 132.555 36.3959 135.486 35.6747C135.858 35.5816 136.231 35.4886 136.603 35.3839C137.534 35.1396 138.581 34.8604 139.686 34.651C146.887 33.2202 152.877 32.6269 158.543 32.8014C164.522 32.9759 169.652 34.0694 174.224 36.1633C182.251 39.8393 187.672 46.1792 190.301 55.0319C191.964 60.5924 192.592 66.5601 192.255 73.2723C191.697 84.0327 189.323 95.3981 184.775 109.067C183.111 114.069 181.576 118.583 179.645 123.061C175.725 132.181 168.954 138.952 159.543 143.175C154.157 145.594 148.643 146.792 143.071 146.792V146.769ZM96.1553 101.808C96.2251 101.808 96.2949 101.808 96.3647 101.808C99.2381 101.889 101.006 103.669 101.96 104.623C103.6 106.263 105.241 107.892 106.881 109.532C111.999 114.651 117.304 119.932 122.492 125.167C126.052 128.761 129.681 131.158 133.578 132.495C140.779 134.973 147.584 134.694 154.39 131.635C160.927 128.703 165.406 124.259 168.082 118.036C169.815 114.011 171.257 109.765 172.828 105.042C177.004 92.4899 179.179 82.1715 179.68 72.5743C179.947 67.3279 179.482 62.7445 178.237 58.5799C176.644 53.2171 173.7 49.7156 168.989 47.5635C167.512 46.8888 165.918 46.377 164.173 46.0047C165.173 47.0401 166.116 48.1568 166.988 49.355C172.316 56.6489 173.456 64.7337 173.852 70.9574C174.201 76.4597 173.747 82.2413 172.456 88.6394C171.711 92.3503 170.839 96.1194 169.792 100.168C169.233 102.331 168.547 104.379 167.884 106.368C167.721 106.845 167.558 107.333 167.407 107.81C167.244 108.311 167.081 108.811 166.93 109.311C166.092 111.998 165.139 115.034 163.149 117.989C159.427 123.503 153.413 127.063 146.654 127.738C139.977 128.412 133.474 126.156 128.809 121.572C123.597 116.442 118.339 111.207 113.256 106.135C111.057 103.948 108.87 101.761 106.671 99.586C105.008 97.9341 104.17 96.0379 104.17 93.9556C104.17 92.5248 104.601 90.3727 106.671 88.3369C111.383 83.6605 116.152 78.8677 120.759 74.2262C122.132 72.8419 123.504 71.4576 124.877 70.0732C127.541 67.3977 130.728 64.3498 134.893 62.0582C141.012 58.6962 147.515 58.5683 153.261 61.5696C152.307 59.8246 151.121 58.2775 149.678 56.9048C145.665 53.0776 141.372 52.3098 135.347 54.3223C131.415 55.6368 127.587 58.1146 123.667 61.8837C119.27 66.1181 114.861 70.5386 110.603 74.8195C109.638 75.7966 108.661 76.7738 107.695 77.7393C106.52 78.9259 105.369 80.1357 104.159 81.4153C103.449 82.1598 102.728 82.9393 101.995 83.707C100.483 85.2775 98.5401 86.15 96.5043 86.1732C96.481 86.1732 96.4578 86.1732 96.4461 86.1732C94.9804 86.1732 92.8167 85.7195 90.7227 83.614L90.1644 83.044C84.0338 76.8785 77.7055 70.492 71.4237 64.2801C65.9214 58.8242 61.5125 55.788 56.6848 54.1129C53.3811 52.9728 50.3216 52.8798 47.6111 53.8453C44.0515 55.1133 41.341 57.5562 39.3401 61.2904C43.9468 58.9871 49.0653 58.7312 54.1837 60.6157C57.8714 61.9767 61.1984 64.0707 64.0834 66.8509C65.8516 68.5493 67.5732 70.2943 69.2367 71.981C70.1674 72.9233 71.1329 73.8889 72.0752 74.8311C76.8563 79.589 81.6956 84.3934 85.9765 88.6278C87.9308 90.5705 88.338 92.6527 88.338 94.0487C88.338 96.0147 87.5004 97.8992 86.0114 99.3533C85.6159 99.7372 85.2204 100.144 84.8016 100.575C84.4526 100.935 84.1036 101.296 83.743 101.657C78.008 107.38 72.2729 113.092 66.5379 118.815C66.3634 118.99 66.1889 119.164 66.0144 119.339C63.7809 121.584 61.2449 124.12 57.6038 125.783C51.8688 128.401 45.2031 128.529 39.3169 126.121C33.5586 123.771 29.1381 119.176 26.8347 113.196C24.0079 105.81 21.7977 98.1435 20.2738 90.4192C17.447 76.0293 18.5405 67.4093 19.5991 62.1861C20.8438 56.0905 23.7404 50.5532 27.998 46.0978C21.8559 47.4472 17.8658 50.3904 15.4345 55.346C14.0502 58.1728 13.422 60.2085 13.3057 62.1861C13.2126 63.838 13.073 65.4666 12.945 67.0487C12.8054 68.5959 12.6891 70.0616 12.6077 71.5157C12.5844 71.9578 12.6658 72.6558 12.7589 73.3886C12.7938 73.7027 12.8287 74.0052 12.8636 74.3193C12.9683 75.2732 13.0497 76.2038 13.1195 77.1112C13.3057 79.2284 13.4802 81.2176 13.8408 83.0556C14.8063 87.9414 15.8998 93.153 17.3655 98.1668C18.9127 103.495 20.8205 109.206 23.1936 115.628C25.8227 122.724 30.1501 127.738 36.4435 130.972C47.076 136.427 59.9188 134.589 68.3992 126.4C73.3897 121.584 78.3918 116.57 83.2311 111.719C85.5926 109.346 88.0472 106.891 90.4668 104.483C91.3626 103.588 93.2122 101.75 96.1786 101.75L96.1553 101.808ZM118.851 93.9789C119.945 95.0608 121.027 96.1543 122.12 97.2361C127.192 102.296 132.438 107.52 137.627 112.626C139.616 114.581 142.443 115.535 145.386 115.244C148.41 114.941 151.086 113.383 152.703 110.986C153.668 109.555 154.238 107.717 154.902 105.589C155.076 105.03 155.251 104.472 155.437 103.913C155.6 103.413 155.762 102.913 155.937 102.413C156.553 100.551 157.147 98.7949 157.589 97.0616C158.403 93.9207 159.101 90.9776 159.706 88.0926C158.031 87.5459 156.623 86.3012 155.89 84.626C155.728 84.2421 155.576 83.9048 155.437 83.5791C155.192 83.009 155.006 82.567 154.809 82.1598C152.854 78.0302 151.086 75.5058 148.887 73.7376C146.34 71.6786 143.874 71.4925 140.919 73.1211C138.499 74.4472 136.312 76.4248 133.776 78.9724C132.404 80.3568 131.031 81.7294 129.658 83.1138C126.11 86.6851 122.481 90.3494 118.84 93.9789H118.851ZM32.5116 87.4877C32.5465 87.6739 32.5814 87.86 32.6163 88.0345C34.0006 95.0491 36.0015 102.017 38.5724 108.729C39.8985 112.196 42.2833 113.778 44.0515 114.511C46.6921 115.593 49.7865 115.535 52.3341 114.371C53.9046 113.65 55.3703 112.184 57.0687 110.486C57.2548 110.3 57.4293 110.125 57.6155 109.939C62.9201 104.658 68.2247 99.3649 73.5177 94.0836C70.2023 90.7915 66.6659 87.29 63.1644 83.8001C62.1872 82.8229 61.21 81.8341 60.2561 80.8802C58.6392 79.24 56.964 77.5532 55.3121 75.9595C53.6952 74.4007 51.8339 73.2258 49.7981 72.4813C47.1924 71.5157 45.2148 71.9578 42.9812 73.9703C40.8524 75.9013 39.061 78.5187 37.3742 82.218C37.0717 82.8811 36.8158 83.4278 36.5599 83.9281C35.9317 85.1728 35.0709 85.8824 34.7451 86.1499L34.6986 86.1848C34.0472 86.7781 33.291 87.2085 32.4883 87.4761L32.5116 87.4877Z" fill="#070E30"/>
<path d="M55.6495 41.7819C52.6715 42.1541 49.6702 42.4101 46.7038 42.9219C36.1295 44.7366 27.8817 52.996 25.7529 63.4773C23.9847 72.1438 24.7525 80.7057 26.4393 89.2442C27.8934 96.666 29.9873 103.913 32.6978 110.986C36.525 120.956 47.2505 123.619 54.9632 120.095C57.8016 118.792 59.9072 116.547 62.0709 114.395C67.8059 108.683 73.5409 102.959 79.276 97.236C80.0554 96.4566 80.8115 95.6539 81.6026 94.8862C82.2424 94.258 82.1144 93.7113 81.5328 93.1412C76.8912 88.5462 72.2497 83.9396 67.6198 79.333C64.9791 76.7039 62.385 74.0051 59.6978 71.4226C57.4759 69.2821 54.8817 67.6302 51.9851 66.56C47.0528 64.7453 42.6323 65.7922 38.7701 69.2937C35.5944 72.1671 33.419 75.7384 31.6624 79.5889C31.4298 80.0891 31.1971 80.5893 30.9528 81.0779C30.9063 81.1826 30.7783 81.2408 30.4875 81.4967C30.2781 80.1822 30.0106 79.0189 29.9175 77.8556C29.4173 71.0038 30.4875 64.4661 33.7564 58.3472C36.3854 53.4381 40.2475 49.797 45.4591 47.9357C49.8098 46.3885 54.335 46.6677 58.709 48.18C65.4561 50.5066 70.8421 54.8922 75.821 59.8245C82.3005 66.2459 88.7219 72.7138 95.1549 79.1934C95.9227 79.9611 96.6207 80.2054 97.4233 79.3562C99.3544 77.3437 101.239 75.2731 103.205 73.3071C108.533 67.9676 113.837 62.5816 119.27 57.3584C123.33 53.4497 127.902 50.1809 133.311 48.3661C141.128 45.7487 148.003 46.6677 153.983 52.3562C159.427 57.5445 161.777 64.1985 162.277 71.5156C162.486 74.6682 162.079 77.8556 161.94 81.0197C161.94 81.2524 161.812 81.4851 161.649 82.09C161.172 81.0081 160.858 80.2171 160.497 79.4493C158.601 75.4359 156.367 71.6552 152.831 68.8168C148.259 65.1408 143.036 64.7453 137.883 67.5837C134.591 69.3868 131.915 71.8995 129.309 74.5169C123.237 80.6242 117.188 86.7548 111.069 92.8155C110.138 93.7345 110.313 94.3627 111.069 95.1305C118.444 102.459 125.784 109.811 133.195 117.105C140.267 124.062 152.377 122.701 157.903 114.488C159.694 111.824 160.427 108.811 161.404 105.856C162.195 103.448 163.045 101.063 163.673 98.6087C164.627 94.8978 165.511 91.1636 166.267 87.3946C167.337 82.1132 167.896 76.7504 167.547 71.3644C167.128 64.8383 165.86 58.5217 161.881 53.0774C157.856 47.5634 152.331 44.376 145.758 42.9801C142.873 42.3752 139.907 42.1425 136.975 41.747C138.243 41.4329 139.558 41.049 140.896 40.7815C146.654 39.6414 152.47 38.8737 158.345 39.0481C162.905 39.1761 167.384 39.9206 171.595 41.8401C178.156 44.8414 182.227 49.9598 184.263 56.7767C185.834 62.0348 186.241 67.4441 185.962 72.8883C185.357 84.6259 182.495 95.9215 178.796 107.019C177.283 111.568 175.748 116.116 173.863 120.514C170.501 128.331 164.72 133.891 156.972 137.37C148.643 141.104 140.139 141.395 131.531 138.428C126.285 136.625 121.911 133.496 118.025 129.576C111.22 122.701 104.357 115.884 97.5164 109.043C96.2368 107.764 96.1204 107.752 94.8874 108.974C87.5121 116.302 80.2415 123.736 72.7615 130.948C62.2686 141.081 46.5409 143.244 33.5586 136.59C25.6133 132.519 20.332 126.086 17.2725 117.838C15.0972 111.94 13.0498 105.972 11.2932 99.9465C9.80417 94.8048 8.68741 89.5583 7.64045 84.3002C7.03553 81.2408 6.89594 78.0999 6.57022 74.9939C6.44226 73.7259 6.22123 72.4579 6.29103 71.1899C6.45389 68.0723 6.82615 64.9779 7.00064 61.8603C7.17513 58.5333 8.32679 55.5087 9.75764 52.5889C13.2475 45.4695 19.157 41.5609 26.7533 39.9323C33.5121 38.4781 40.2592 38.9783 47.0063 40.0137C49.9261 40.4557 52.8111 41.0723 55.7193 41.6074C55.696 41.6539 55.6728 41.7121 55.6495 41.7586V41.7819Z" fill="url(#paint0_linear_1989_4633)"/>
<path d="M193.313 81.0429L188.427 95.0257L194.093 97.3057L201.666 78.7163L193.313 81.0429Z" fill="#070E30"/>
<path d="M198.199 103.995C202.457 83.6487 208.052 76.1803 231.307 76.1803C254.561 76.1803 256.841 83.6487 252.583 103.995L251.234 110.323C246.871 130.669 241.381 138.137 218.126 138.137C194.872 138.137 192.487 130.669 196.85 110.323L198.199 103.995ZM202.352 73.6909L206.819 52.4143H220.523L221.872 46.1907H251.967L250.617 52.4143H264.111L259.644 73.6909H202.364H202.352ZM226.839 105.344C228.91 95.2816 229.329 94.6534 227.363 94.6534C225.397 94.6534 225.385 95.2816 223.315 105.344L222.384 109.706C220.209 119.769 219.895 120.397 221.861 120.397C223.827 120.397 223.733 119.769 225.909 109.706L226.839 105.344ZM295.136 138.137H273.348L280.409 104.821H277.291L270.23 138.137H248.442L267.02 50.3436H288.808L281.852 83.0321H284.969L291.926 50.3436H313.714L295.136 138.137Z" fill="#005384"/>
<path d="M407.01 138.137H376.916L384.489 102.436H371.414L355.639 138.137H325.231L342.04 100.668H311.737L316.716 77.3203H352.626L354.395 73.6908H317.553L322.427 50.3435H389.887L385.734 70.0613L381.79 79.0884H389.468L395.482 50.3435H425.576L406.999 138.137H407.01Z" fill="#005384"/>
<path d="M522.514 118.943L518.465 138.137H419.458L425.379 110.323H455.473L453.6 118.931H522.514V118.943ZM435.022 64.5589H532.995L530.924 74.6214H468.246L467.315 78.8791H529.994L527.504 90.5004H493.571L492.85 93.9204H528.865L526.062 107.205H423.948L426.751 93.9204H462.767L463.488 90.5004H429.555L435.057 64.5589H435.022ZM533.611 61.9648H435.639L438.024 50.3435H535.996L533.611 61.9648Z" fill="#005384"/>
<path d="M301.081 145.489H239.368L240.182 141.662C238.403 142.511 236.472 143.209 234.378 143.756C229.98 144.919 224.664 145.489 218.138 145.489C208.506 145.489 197.874 144.5 191.952 137.183C185.857 129.645 187.578 118.57 189.684 108.787L191.033 102.47C192.86 93.7574 195.035 86.5915 199.107 81.031H193.325L200.863 45.062H214.602L215.951 38.8384H261.075L259.726 45.062H260.622L261.064 42.9913H322.776L301.092 145.477L301.081 145.489ZM282.398 130.797H289.169L304.641 57.6953H297.858L290.902 90.3838H272.766L279.723 57.6953H272.952L257.481 130.797H264.263L271.324 97.4799H289.46L282.398 130.797ZM231.307 83.5321C221.663 83.5321 215.893 84.8815 212.578 87.8944C209.506 90.6979 207.413 95.8048 205.388 105.507L204.039 111.87C201.177 125.236 202.829 127.283 203.376 127.958C204.237 129.017 207.296 130.808 218.138 130.808C227.758 130.808 233.528 129.47 236.821 126.458C239.88 123.666 241.974 118.547 244.068 108.81L245.417 102.494C246.115 99.1551 248.221 89.0693 246.034 86.3705C245.173 85.3119 242.125 83.5437 231.33 83.5437L231.307 83.5321ZM211.403 66.3502H253.677L255.061 59.766H241.509L242.858 53.5424H227.793L226.444 59.766H212.787L211.403 66.3502ZM221.861 127.737C218.243 127.737 216.16 126.085 215.044 124.701C212.659 121.735 213.194 118.268 213.415 116.779C213.636 115.302 214.067 113.359 214.706 110.427C214.858 109.729 215.02 108.973 215.207 108.147L216.126 103.831L216.475 102.121C217.475 97.2589 217.929 95.037 218.65 93.2455C219.534 91.0236 221.849 87.3011 227.363 87.3011C230.946 87.3011 233.028 88.9414 234.145 90.3141C236.495 93.2106 236.006 96.6307 235.82 97.922C235.634 99.2481 235.273 100.935 234.738 103.483C234.529 104.46 234.296 105.565 234.04 106.833V106.891L233.098 111.253C232.865 112.347 232.656 113.301 232.47 114.173C231.551 118.477 231.132 120.443 230.411 122.13C229.515 124.224 227.212 127.749 221.872 127.749L221.861 127.737Z" fill="#070E30"/>
<path d="M412.955 145.489H367.842L374.706 113.173L360.42 145.489H313.877L330.687 108.02H302.651L310.771 69.9799H310.818L316.46 43.0032H434.65L412.966 145.489H412.955ZM385.978 130.797H401.054L416.526 57.6955H401.461L395.447 86.4405H370.576L378.707 67.8162L380.836 57.6955H328.407L326.604 66.3504H366.144L357.245 84.6723H322.683L320.834 93.3272H353.406L336.596 130.797H350.87L366.644 95.0954H393.574L386.001 130.797H385.978Z" fill="#070E30"/>
<path d="M524.421 145.489H410.384L416.956 114.569H414.862L420.76 86.5917H422.843L429.066 57.2186H429.113L432.033 43.0032H545L539.591 69.3168H539.498L539.044 71.5387H539.056L538.66 73.3767L536.892 81.9735H536.822L535.833 86.5801H537.892L531.994 114.557H530.936L524.421 145.478V145.489ZM428.531 130.797H512.509L513.463 126.283H444.503L446.376 117.675H431.335L428.543 130.797H428.531ZM468.99 99.8649H484.067L486.963 86.2195H471.887L468.99 99.8649ZM438.594 83.16H458.847L461.313 71.911H440.978L438.594 83.16Z" fill="#070E30"/>
<path d="M198.199 103.995C202.457 83.6487 208.052 76.1803 231.307 76.1803C254.561 76.1803 256.841 83.6487 252.583 103.995L251.234 110.323C246.871 130.669 241.381 138.137 218.126 138.137C194.872 138.137 192.487 130.669 196.85 110.323L198.199 103.995ZM202.352 73.6909L206.819 52.4143H220.523L221.872 46.1907H251.967L250.617 52.4143H264.111L259.644 73.6909H202.364H202.352ZM226.839 105.344C228.91 95.2816 229.329 94.6534 227.363 94.6534C225.397 94.6534 225.385 95.2816 223.315 105.344L222.384 109.706C220.209 119.769 219.895 120.397 221.861 120.397C223.827 120.397 223.733 119.769 225.909 109.706L226.839 105.344ZM295.136 138.137H273.348L280.409 104.821H277.291L270.23 138.137H248.442L267.02 50.3436H288.808L281.852 83.0321H284.969L291.926 50.3436H313.714L295.136 138.137Z" fill="url(#paint1_linear_1989_4633)"/>
<path d="M407.01 138.137H376.916L384.489 102.436H371.414L355.639 138.137H325.231L342.04 100.668H311.737L316.716 77.3203H352.626L354.395 73.6908H317.553L322.427 50.3435H389.887L385.734 70.0613L381.79 79.0884H389.468L395.482 50.3435H425.576L406.999 138.137H407.01Z" fill="url(#paint2_linear_1989_4633)"/>
<path d="M522.514 118.943L518.465 138.137H419.458L425.379 110.323H455.473L453.6 118.931H522.514V118.943ZM435.022 64.5589H532.995L530.924 74.6214H468.246L467.315 78.8791H529.994L527.504 90.5004H493.571L492.85 93.9204H528.865L526.062 107.205H423.948L426.751 93.9204H462.767L463.488 90.5004H429.555L435.057 64.5589H435.022ZM533.611 61.9648H435.639L438.024 50.3435H535.996L533.611 61.9648Z" fill="url(#paint3_linear_1989_4633)"/>
<path d="M97.1545 49.343C95.3495 49.343 93.7799 48.0762 93.4099 46.2823L89.2393 26.0571C88.903 24.409 89.6766 22.7385 91.1452 21.9201C91.7058 21.6174 92.3112 21.4605 92.9166 21.4492L90.7753 10.5518C90.4614 8.9374 91.2013 7.30056 92.6252 6.49334L103.063 0.506487C104.319 -0.211038 105.877 -0.16619 107.088 0.641026C108.299 1.43703 108.949 2.84966 108.769 4.29592L104.677 38.199C104.498 39.6789 103.478 40.9233 102.054 41.383C101.74 41.4839 101.426 41.5399 101.112 41.5624L100.989 45.6209C100.933 47.5604 99.4304 49.1524 97.4909 49.3206C97.3788 49.3206 97.2666 49.3318 97.1545 49.3318V49.343ZM98.8026 11.7739L99.6322 15.9781L100.238 10.9554L98.8026 11.7739Z" fill="#070E30"/>
<path d="M104.958 3.83667L94.5089 9.82352L98.6347 30.7775L92.9841 25.2839L97.1547 45.5092L97.4911 34.096L100.866 37.7397L104.958 3.83667Z" fill="url(#paint4_linear_1989_4633)"/>
<defs>
<linearGradient id="paint0_linear_1989_4633" x1="6.29103" y1="89.7561" x2="186.043" y2="89.7561" gradientUnits="userSpaceOnUse">
<stop offset="0.25" stop-color="#00C2FF"/>
<stop offset="1" stop-color="#03D91A"/>
</linearGradient>
<linearGradient id="paint1_linear_1989_4633" x1="195.07" y1="92.1756" x2="536.008" y2="92.1756" gradientUnits="userSpaceOnUse">
<stop stop-color="#00C2FF"/>
<stop offset="1" stop-color="#03D91A"/>
</linearGradient>
<linearGradient id="paint2_linear_1989_4633" x1="195.07" y1="94.2461" x2="536.008" y2="94.2461" gradientUnits="userSpaceOnUse">
<stop stop-color="#00C2FF"/>
<stop offset="1" stop-color="#03D91A"/>
</linearGradient>
<linearGradient id="paint3_linear_1989_4633" x1="195.07" y1="94.2461" x2="536.008" y2="94.2461" gradientUnits="userSpaceOnUse">
<stop stop-color="#00C2FF"/>
<stop offset="1" stop-color="#03D91A"/>
</linearGradient>
<linearGradient id="paint4_linear_1989_4633" x1="98.971" y1="4.22907" x2="98.971" y2="40.1165" gradientUnits="userSpaceOnUse">
<stop stop-color="#00C2FF"/>
<stop offset="1" stop-color="#03D91A"/>
</linearGradient>
</defs>
</svg>
